<svg xml:space="preserve" viewBox="157.52067499999998 47.58024691358025 502.51 430.8543209876543" width="502.51" y="0px" x="0px" xmlns:xlink="http://www.w3.org/1999/xlink" xmlns="http://www.w3.org/2000/svg" id="Layer_1" version="1.1" style="max-height: 500px" height="430.8543209876543">
<path d="M1006.000000,657.000000 &#10;&#9;C670.666687,657.000000 335.833344,657.000000 1.000000,657.000000 &#10;&#9;C1.000000,438.333344 1.000000,219.666672 1.000000,1.000000 &#10;&#9;C541.333313,1.000000 1081.666626,1.000000 1622.000000,1.000000 &#10;&#9;C1622.000000,219.666672 1622.000000,438.333344 1622.000000,657.000000 &#10;&#9;C1416.833374,657.000000 1211.666626,657.000000 1006.000000,657.000000 &#10;M330.725464,253.692032 &#10;&#9;C333.023163,254.624741 336.549805,254.919617 337.418793,256.593872 &#10;&#9;C342.999634,267.346375 347.998016,278.401184 353.251465,289.491211 &#10;&#9;C347.639435,294.561127 342.177063,299.414307 336.803467,304.363861 &#10;&#9;C306.929504,331.880402 279.460175,361.515839 257.304321,395.725739 &#10;&#9;C248.865723,408.755402 241.444702,422.367340 238.346497,437.827026 &#10;&#9;C235.421509,452.422394 240.730530,463.102570 253.362427,468.543854 &#10;&#9;C272.647552,476.851105 300.926880,471.039246 315.499664,455.773682 &#10;&#9;C324.622009,446.217743 322.984955,440.029816 310.384705,436.437805 &#10;&#9;C310.224609,436.392120 310.069946,436.316254 309.907196,436.292450 &#10;&#9;C305.814087,435.693695 304.180267,433.107513 304.602203,429.248047 &#10;&#9;C305.837433,417.949402 311.476257,408.565948 317.580841,398.631348 &#10;&#9;C320.270660,409.170746 324.223572,411.974884 334.187897,411.429626 &#10;&#9;C345.850922,410.791382 356.120239,406.010864 366.007904,400.466492 &#10;&#9;C404.422028,378.926422 437.979706,351.269043 467.410858,318.615814 &#10;&#9;C477.778625,307.113007 487.809601,295.182159 494.254944,280.899719 &#10;&#9;C496.536224,275.844543 498.223511,270.254456 498.799744,264.763458 &#10;&#9;C499.537842,257.730042 495.383209,253.398209 488.304169,253.953598 &#10;&#9;C481.944702,254.452515 475.706604,256.581482 469.435059,258.075653 &#10;&#9;C467.128540,258.625153 464.879456,259.415863 462.604187,260.096588 &#10;&#9;C465.606812,256.988892 468.919128,254.827286 472.265442,252.719635 &#10;&#9;C491.163971,240.816452 510.946198,231.349152 533.597778,228.933014 &#10;&#9;C542.177002,228.017899 549.936096,224.259476 556.430176,218.459702 &#10;&#9;C565.633179,210.240585 563.359497,198.330917 551.612915,194.703247 &#10;&#9;C546.649414,193.170380 541.111511,192.737686 535.884399,192.961929 &#10;&#9;C520.971375,193.601700 506.614380,197.330826 492.630554,202.381424 &#10;&#9;C461.559540,213.603485 433.306183,230.154053 406.104126,248.627075 &#10;&#9;C397.742432,254.305557 389.552917,260.237610 380.976410,266.270264 &#10;&#9;C380.506866,265.246582 380.209503,264.515381 379.846252,263.818512 &#10;&#9;C371.625641,248.048401 364.309235,231.717438 354.968811,216.640472 &#10;&#9;C338.880951,190.672043 318.124084,168.968170 290.900726,154.222107 &#10;&#9;C267.806000,141.712387 243.335724,136.348389 217.166168,141.034485 &#10;&#9;C203.937622,143.403259 191.950027,148.707123 182.337860,158.271118 &#10;&#9;C172.375534,168.183517 171.289658,180.573120 178.727524,192.431656 &#10;&#9;C180.044983,194.532166 181.409637,196.603058 182.043686,198.794525 &#10;&#9;C176.991180,202.763000 171.370544,206.200394 167.034546,210.838684 &#10;&#9;C161.978531,216.247238 162.501877,223.438675 167.434418,228.991165 &#10;&#9;C169.728043,231.573059 172.359619,234.233307 175.396606,235.706390 &#10;&#9;C185.095886,240.410889 194.778366,245.420364 204.971985,248.781525 &#10;&#9;C229.582047,256.896210 255.145508,260.673950 280.895996,262.721954 &#10;&#9;C292.121857,263.614777 303.498901,263.441284 314.753510,262.803345 &#10;&#9;C320.857025,262.457428 326.899872,260.203827 330.725464,253.692032 &#10;M804.500061,214.866928 &#10;&#9;C766.735840,214.866928 728.971680,214.866928 691.126221,214.866928 &#10;&#9;C691.126221,223.259598 691.126221,231.135406 691.126221,239.484497 &#10;&#9;C716.480652,239.484497 741.493347,239.484497 766.859314,239.484497 &#10;&#9;C765.080261,244.204483 763.305786,248.324677 761.996460,252.587708 &#10;&#9;C761.087830,255.546143 759.423035,256.195312 756.545227,256.157654 &#10;&#9;C744.218872,255.996490 731.889404,256.069183 719.561096,256.060364 &#10;&#9;C713.452209,256.056000 707.343323,256.059601 701.207764,256.059601 &#10;&#9;C701.207764,298.801239 701.207764,341.005127 701.207764,383.536346 &#10;&#9;C703.335144,383.536346 705.148743,383.536346 706.962402,383.536346 &#10;&#9;C738.116455,383.536407 769.270508,383.554840 800.424561,383.529053 &#10;&#9;C817.083679,383.515289 833.751892,383.748505 850.399231,383.277344 &#10;&#9;C866.526672,382.820892 871.787659,377.016968 871.799561,361.029572 &#10;&#9;C871.824402,327.709747 871.814880,294.389893 871.819458,261.070068 &#10;&#9;C871.819702,259.478973 871.819519,257.887878 871.819519,255.879059 &#10;&#9;C846.404236,255.879059 821.689148,255.879059 796.442383,255.879059 &#10;&#9;C798.404480,250.026657 800.184631,244.716995 802.054688,239.139069 &#10;&#9;C828.670410,239.139069 855.092957,239.139069 881.684753,239.139069 &#10;&#9;C881.684753,230.884567 881.684753,222.995148 881.684753,214.867508 &#10;&#9;C856.101074,214.867508 830.800598,214.867508 804.500061,214.866928 &#10;M1093.992310,290.342621 &#10;&#9;C1093.992310,282.918365 1093.992310,275.494110 1093.992310,267.931366 &#10;&#9;C1080.208618,267.931366 1067.059082,267.931366 1053.909546,267.931366 &#10;&#9;C1040.796875,267.931366 1027.684204,267.931366 1014.351135,267.931366 &#10;&#9;C1014.351135,260.556885 1014.351135,253.653702 1014.351135,246.227463 &#10;&#9;C1016.368103,246.227463 1018.151733,246.231491 1019.935303,246.226837 &#10;&#9;C1035.594727,246.186050 1051.269043,246.554993 1066.909912,245.994965 &#10;&#9;C1085.355103,245.334518 1094.820312,233.862061 1091.816772,213.074646 &#10;&#9;C1081.707886,213.074646 1071.621826,213.074646 1061.626587,213.074646 &#10;&#9;C1059.931763,221.227875 1058.929321,222.123047 1050.904785,222.131195 &#10;&#9;C1005.757629,222.177063 960.610535,222.182938 915.463379,222.202316 &#10;&#9;C913.688782,222.203079 911.914185,222.202408 910.109863,222.202408 &#10;&#9;C910.109863,230.518738 910.109863,238.265930 910.109863,246.422836 &#10;&#9;C934.293335,246.422836 958.196045,246.422836 982.105469,246.422836 &#10;&#9;C982.105469,253.747055 982.105469,260.650269 982.105469,267.976257 &#10;&#9;C957.027405,267.976257 932.279541,267.976257 907.436646,267.976257 &#10;&#9;C907.436646,276.276428 907.436646,284.143005 907.436646,292.383148 &#10;&#9;C932.564575,292.383148 957.333801,292.383148 982.633606,292.383148 &#10;&#9;C982.633606,323.679657 982.633606,354.598419 982.633606,385.426544 &#10;&#9;C993.411072,385.426544 1003.648438,385.426544 1014.378845,385.426544 &#10;&#9;C1014.378845,354.189148 1014.378845,323.303711 1014.378845,292.196259 &#10;&#9;C1039.523193,292.196259 1064.165894,292.213715 1088.808350,292.158447 &#10;&#9;C1090.520264,292.154633 1092.230713,291.610291 1093.992310,290.342621 &#10;M1207.970093,344.459930 &#10;&#9;C1208.923218,343.604584 1209.876465,342.749268 1210.959961,341.777039 &#10;&#9;C1212.675659,343.385498 1214.151245,344.710510 1215.562378,346.101135 &#10;&#9;C1224.582397,354.990692 1233.574707,363.908295 1242.602783,372.789642 &#10;&#9;C1250.965454,381.016266 1260.894775,385.136017 1272.764771,384.812103 &#10;&#9;C1282.922852,384.534882 1293.094849,384.775635 1303.260620,384.757416 &#10;&#9;C1304.696411,384.754852 1306.131958,384.582581 1307.461670,384.495758 &#10;&#9;C1307.461670,375.663269 1307.461670,367.260010 1307.461670,358.587219 &#10;&#9;C1301.151245,358.587219 1295.115112,359.131866 1289.232422,358.416443 &#10;&#9;C1284.449097,357.834778 1278.840332,356.972046 1275.345825,354.103943 &#10;&#9;C1261.510742,342.748871 1248.363037,330.556274 1234.675293,318.421265 &#10;&#9;C1254.783203,298.841217 1274.450684,279.690125 1294.798706,259.876373 &#10;&#9;C1281.021362,259.876373 1268.522461,259.768433 1256.029541,259.993073 &#10;&#9;C1254.161621,260.026672 1251.961792,261.230194 1250.524902,262.553986 &#10;&#9;C1237.807739,274.269867 1225.228149,286.135193 1212.422607,298.129974 &#10;&#9;C1202.202026,288.828217 1191.692383,280.259491 1182.416992,270.515778 &#10;&#9;C1174.585327,262.288940 1166.169556,258.513000 1154.780640,259.720581 &#10;&#9;C1146.331055,260.616516 1137.710205,259.896851 1130.125244,259.896851 &#10;&#9;C1149.512207,280.154205 1169.036255,300.554779 1188.599976,320.996765 &#10;&#9;C1178.150269,330.583496 1167.297729,340.680634 1156.279053,350.593140 &#10;&#9;C1150.114380,356.138947 1142.938965,359.085236 1134.386841,358.554077 &#10;&#9;C1128.444214,358.184967 1122.460083,358.483032 1116.350708,358.483032 &#10;&#9;C1116.350708,367.430603 1116.350708,375.962891 1116.350708,384.767944 &#10;&#9;C1126.164307,384.767944 1135.641357,384.800568 1145.118164,384.760254 &#10;&#9;C1159.045044,384.700989 1171.188232,380.140747 1181.254272,370.352081 &#10;&#9;C1189.975098,361.871399 1198.731079,353.426697 1207.970093,344.459930 &#10;M1501.445801,227.002213 &#10;&#9;C1493.671265,227.002213 1485.896606,227.002213 1477.805298,227.002213 &#10;&#9;C1477.805298,229.363724 1477.805542,231.167328 1477.805298,232.970917 &#10;&#9;C1477.803223,247.296844 1477.827148,261.622864 1477.783325,275.948639 &#10;&#9;C1477.770142,280.226349 1476.852295,284.523438 1471.688110,284.701691 &#10;&#9;C1461.086914,285.067627 1450.464478,284.811584 1439.344604,284.811584 &#10;&#9;C1439.344604,260.652344 1439.344604,236.924805 1439.344604,213.284790 &#10;&#9;C1428.735596,213.284790 1418.643311,213.284790 1408.180054,213.284790 &#10;&#9;C1408.180054,215.032883 1408.180176,216.496353 1408.179932,217.959839 &#10;&#9;C1408.171997,264.935608 1408.165283,311.911377 1408.155762,358.887146 &#10;&#9;C1408.151733,378.824799 1414.039551,384.735596 1434.087158,384.761780 &#10;&#9;C1460.906616,384.796844 1487.726196,384.780518 1514.545654,384.771576 &#10;&#9;C1515.993652,384.771088 1517.441650,384.635620 1518.809204,384.567017 &#10;&#9;C1518.809204,375.789185 1518.809204,367.393707 1518.809204,358.813721 &#10;&#9;C1510.640991,358.813721 1502.822754,358.810608 1495.004517,358.814392 &#10;&#9;C1479.679077,358.821777 1464.353638,358.872742 1449.028442,358.816193 &#10;&#9;C1444.925903,358.801086 1440.066528,358.417023 1439.908447,353.242249 &#10;&#9;C1439.468140,338.825623 1439.755615,324.386749 1439.755615,309.486877 &#10;&#9;C1442.061646,309.486877 1444.020386,309.490417 1445.979004,309.486298 &#10;&#9;C1458.805664,309.459137 1471.634155,309.560455 1484.458374,309.369873 &#10;&#9;C1501.357300,309.118805 1509.152832,301.162170 1509.192261,284.341827 &#10;&#9;C1509.233398,266.850983 1509.190674,249.359909 1509.184570,231.868942 &#10;&#9;C1509.184082,230.295868 1509.184448,228.722794 1509.184448,227.001572 &#10;&#9;C1506.406494,227.001572 1504.419189,227.001572 1501.445801,227.002213 &#10;M369.439972,205.692001 &#10;&#9;C373.671387,216.211136 381.613434,220.179581 392.185608,215.885315 &#10;&#9;C398.079315,213.491348 404.273132,210.300095 408.549988,205.781708 &#10;&#9;C417.426849,196.403595 426.157745,186.565613 433.074188,175.721176 &#10;&#9;C447.106354,153.719925 455.989502,129.810852 453.015594,103.000305 &#10;&#9;C451.370361,88.167885 446.747284,74.321945 436.526062,63.026928 &#10;&#9;C428.057709,53.668930 417.024689,53.299030 408.839081,62.797508 &#10;&#9;C403.373474,69.139725 398.630981,76.435539 395.043732,84.005409 &#10;&#9;C383.269196,108.851944 377.099823,135.478683 372.047577,162.338745 &#10;&#9;C369.408020,176.371704 366.340302,190.472336 369.439972,205.692001 &#10;M377.000763,441.474304 &#10;&#9;C373.883362,443.686798 370.530579,445.638214 367.710876,448.180878 &#10;&#9;C364.524536,451.054199 364.999115,454.741943 368.677002,456.900208 &#10;&#9;C370.631958,458.047455 372.952698,458.875366 375.197540,459.171631 &#10;&#9;C384.657501,460.420319 393.322510,457.953522 401.381226,453.021057 &#10;&#9;C433.103882,433.604645 463.662689,412.559692 491.880463,388.250977 &#10;&#9;C521.143311,363.042053 548.327454,335.836975 569.640198,303.429626 &#10;&#9;C577.196777,291.939362 583.104492,279.344238 589.466980,267.098663 &#10;&#9;C592.207397,261.824219 590.544495,257.202972 586.022461,255.354263 &#10;&#9;C578.484497,252.272537 560.400574,256.659058 556.393860,267.020050 &#10;&#9;C546.356689,292.975098 530.297974,315.253784 512.009521,335.965881 &#10;&#9;C473.730743,379.317474 427.317413,412.313263 377.000763,441.474304 &#10;M1378.794800,278.522400 &#10;&#9;C1378.879639,273.140991 1378.418579,267.675903 1379.226685,262.405396 &#10;&#9;C1379.841187,258.397919 1382.065918,254.636627 1383.579346,250.767731 &#10;&#9;C1388.710205,237.650452 1393.843384,224.533997 1399.138916,211.000107 &#10;&#9;C1389.183838,211.000107 1379.712646,211.208191 1370.258911,210.893143 &#10;&#9;C1366.697876,210.774475 1365.375488,212.185852 1364.229736,215.205338 &#10;&#9;C1359.926025,226.548096 1355.211792,237.736343 1350.985474,249.106659 &#10;&#9;C1348.846924,254.860550 1345.054565,257.099487 1339.148071,256.737274 &#10;&#9;C1335.539185,256.515991 1331.905640,256.696411 1328.322266,256.696411 &#10;&#9;C1328.322266,265.804108 1328.322266,274.395264 1328.322266,283.310608 &#10;&#9;C1334.897339,283.310608 1341.178101,283.310608 1347.951904,283.310608 &#10;&#9;C1347.951904,317.193634 1347.951904,350.750122 1347.951904,384.372223 &#10;&#9;C1358.497681,384.372223 1368.532593,384.372223 1378.795288,384.372223 &#10;&#9;C1378.795288,349.148956 1378.795288,314.332184 1378.794800,278.522400 &#10;M1186.499878,249.700943 &#10;&#9;C1226.598511,249.700943 1266.697266,249.700943 1306.959961,249.700943 &#10;&#9;C1306.959961,240.980530 1306.959961,232.636063 1306.959961,223.834229 &#10;&#9;C1281.182251,223.834229 1255.813843,223.834229 1230.039429,223.834229 &#10;&#9;C1230.039429,218.957047 1230.039429,214.543289 1230.039429,210.222900 &#10;&#9;C1218.044434,210.222900 1206.466431,210.222900 1194.468994,210.222900 &#10;&#9;C1194.468994,214.908310 1194.468994,219.332733 1194.468994,224.204498 &#10;&#9;C1168.000610,224.204498 1141.952759,224.204498 1115.766113,224.204498 &#10;&#9;C1115.766113,232.893494 1115.766113,241.111557 1115.766113,249.700058 &#10;&#9;C1139.247192,249.700058 1162.373535,249.700058 1186.499878,249.700943 &#10;M615.508545,332.011353 &#10;&#9;C616.970886,330.194489 618.453613,328.393616 619.892395,326.558228 &#10;&#9;C631.556519,311.678650 641.329590,295.654144 649.041809,278.382263 &#10;&#9;C651.633118,272.578979 650.401489,268.680145 645.416748,266.980713 &#10;&#9;C634.454468,263.243378 619.752747,269.927734 615.823608,280.722504 &#10;&#9;C610.246643,296.044373 602.145996,309.937866 592.556519,323.026337 &#10;&#9;C566.796143,358.186218 534.105469,385.871857 498.062897,409.771667 &#10;&#9;C482.675842,419.974823 466.563477,429.080505 450.900543,438.876556 &#10;&#9;C449.177582,439.954132 448.247223,442.298950 446.949249,444.056000 &#10;&#9;C448.896912,445.101349 450.740051,446.704193 452.810913,447.092438 &#10;&#9;C460.449829,448.524597 467.368378,445.794922 473.709991,442.030792 &#10;&#9;C492.884094,430.649933 512.325623,419.638275 530.858765,407.277069 &#10;&#9;C562.311707,386.298676 590.827087,361.789124 615.508545,332.011353 &#10;M1236.499756,415.454559 &#10;&#9;C1331.599243,415.454559 1426.698853,415.454559 1521.839355,415.454559 &#10;&#9;C1521.839355,413.732849 1521.839355,412.508179 1521.839355,411.192535 &#10;&#9;C1246.488892,411.192535 971.440491,411.192535 696.128235,411.192535 &#10;&#9;C696.128235,412.586182 696.128235,413.826752 696.128235,415.455750 &#10;&#9;C875.985046,415.455750 1055.742310,415.455750 1236.499756,415.454559 &#10;M1035.519897,334.045166 &#10;&#9;C1039.074585,344.239227 1042.534668,354.467529 1046.217529,364.615112 &#10;&#9;C1048.628174,371.257538 1053.188965,375.684937 1060.578369,375.838074 &#10;&#9;C1071.380859,376.061920 1082.191528,375.895630 1093.301514,375.895630 &#10;&#9;C1093.301514,367.802429 1093.301514,359.910278 1093.301514,351.544037 &#10;&#9;C1090.320557,351.544037 1087.523560,351.551300 1084.726562,351.542725 &#10;&#9;C1075.804077,351.515350 1074.956055,350.938721 1071.982788,342.741119 &#10;&#9;C1067.677124,330.869934 1063.438354,318.974030 1059.022339,307.144165 &#10;&#9;C1058.545776,305.867523 1057.105225,304.044952 1056.075684,304.020905 &#10;&#9;C1046.013062,303.785767 1035.942749,303.879242 1025.316650,303.879242 &#10;&#9;C1028.766113,314.160217 1031.982178,323.745239 1035.519897,334.045166 &#10;M935.580383,318.035004 &#10;&#9;C932.433350,325.003204 928.662537,331.766754 926.293030,338.989990 &#10;&#9;C923.147583,348.578766 917.834412,353.732635 907.295105,351.810242 &#10;&#9;C906.898010,351.737823 906.423889,352.087341 906.220459,352.158325 &#10;&#9;C906.220459,360.119659 906.220459,367.870056 906.220459,375.949646 &#10;&#9;C913.960938,375.949646 921.256653,375.944366 928.552429,375.950958 &#10;&#9;C938.442261,375.959869 945.172485,371.553101 949.046936,362.258514 &#10;&#9;C954.288879,349.683136 960.007263,337.306915 965.471924,324.823639 &#10;&#9;C968.449463,318.021545 971.325134,311.174835 974.451843,303.869080 &#10;&#9;C967.981934,303.869080 962.034241,304.649323 956.374146,303.705292 &#10;&#9;C944.885986,301.789185 938.166870,305.948730 935.580383,318.035004 &#10;M1516.351440,448.554901 &#10;&#9;C1514.486572,454.624115 1512.621704,460.693359 1510.421265,467.854553 &#10;&#9;C1508.808472,462.436829 1507.517090,458.165863 1506.266602,453.882935 &#10;&#9;C1504.145508,446.616913 1504.156006,446.608032 1496.750122,446.844696 &#10;&#9;C1496.268921,446.860046 1495.793579,447.063934 1495.220581,447.203217 &#10;&#9;C1493.303955,453.393829 1491.386230,459.588135 1489.031128,467.195312 &#10;&#9;C1487.235229,461.496918 1485.931274,457.295044 1484.586426,453.106201 &#10;&#9;C1482.256958,445.850677 1481.835205,445.632874 1474.094604,447.615967 &#10;&#9;C1476.708862,455.319855 1479.298462,463.016785 1481.933716,470.698090 &#10;&#9;C1484.469604,478.089813 1484.490356,478.088074 1492.123535,477.866760 &#10;&#9;C1492.606445,477.852783 1493.084229,477.658875 1493.747192,477.506744 &#10;&#9;C1495.542603,471.364990 1497.351562,465.176605 1499.527832,457.731842 &#10;&#9;C1501.974121,465.239044 1504.044800,471.593292 1506.046875,477.737213 &#10;&#9;C1515.348267,478.023163 1515.340820,478.020782 1518.008667,469.727112 &#10;&#9;C1518.618408,467.831390 1519.325073,465.966980 1519.941528,464.073273 &#10;&#9;C1521.759033,458.489990 1523.553467,452.899231 1525.681885,446.304474 &#10;&#9;C1522.022949,446.912109 1519.371094,447.352478 1516.351440,448.554901 &#10;M808.571045,477.857910 &#10;&#9;C815.821045,477.857910 823.071106,477.857910 830.631348,477.857910 &#10;&#9;C830.631348,470.600983 830.959045,463.970032 830.531433,457.388184 &#10;&#9;C830.165710,451.758881 826.438599,447.678101 820.567261,447.279510 &#10;&#9;C811.860229,446.688446 803.083374,447.126526 794.388916,447.126526 &#10;&#9;C794.388916,449.118927 794.388916,451.015442 794.388916,453.224030 &#10;&#9;C800.666199,453.224030 806.639282,453.041687 812.593445,453.298401 &#10;&#9;C815.727905,453.433563 819.399536,453.581055 819.610901,458.610413 &#10;&#9;C817.741638,458.610413 816.128601,458.554901 814.520508,458.620667 &#10;&#9;C809.383667,458.830780 804.174011,458.628082 799.133850,459.450897 &#10;&#9;C793.956543,460.296082 791.103088,464.365875 791.337585,468.953369 &#10;&#9;C791.565857,473.417664 794.447266,476.532379 799.662170,477.432465 &#10;&#9;C802.255249,477.880005 804.950562,477.735443 808.571045,477.857910 &#10;M724.879395,460.048737 &#10;&#9;C724.879395,465.832550 724.879395,471.616394 724.879395,477.561584 &#10;&#9;C728.640015,477.561584 731.865234,477.561584 735.612610,477.561584 &#10;&#9;C735.612610,471.335632 735.706421,465.376221 735.587952,459.421051 &#10;&#9;C735.451050,452.542175 732.439697,448.802002 725.621033,447.909393 &#10;&#9;C720.267944,447.208649 714.805847,447.340851 708.858887,447.079559 &#10;&#9;C708.858887,443.502167 708.858887,439.767303 708.858887,436.146362 &#10;&#9;C705.219788,436.146362 702.111267,436.146362 698.983948,436.146362 &#10;&#9;C698.983948,450.118683 698.983948,463.855743 698.983948,477.579285 &#10;&#9;C702.423401,477.579285 705.528259,477.579285 709.086548,477.579285 &#10;&#9;C709.086548,469.751099 709.086548,462.161865 709.086548,454.273285 &#10;&#9;C712.693420,454.273285 715.841309,454.199219 718.984070,454.294189 &#10;&#9;C722.131165,454.389252 724.478455,455.606140 724.879395,460.048737 &#10;M1184.256714,459.863190 &#10;&#9;C1179.642334,459.527985 1174.995483,459.417633 1170.427734,458.759064 &#10;&#9;C1168.265747,458.447327 1166.254883,457.086975 1164.175537,456.201691 &#10;&#9;C1166.325562,455.227325 1168.426758,453.570801 1170.635376,453.412354 &#10;&#9;C1176.243042,453.010010 1181.898926,453.278625 1187.715820,453.278625 &#10;&#9;C1187.715820,450.982605 1187.715820,448.934998 1187.715820,446.880798 &#10;&#9;C1179.144287,446.880798 1170.830688,446.575073 1162.552612,446.985474 &#10;&#9;C1156.785767,447.271332 1153.180176,451.648743 1153.380615,456.834137 &#10;&#9;C1153.571167,461.762756 1156.805542,464.684357 1162.748291,465.181122 &#10;&#9;C1164.733643,465.347046 1166.737915,465.269379 1168.729736,465.376678 &#10;&#9;C1171.546387,465.528381 1174.394653,465.550598 1177.155884,466.041168 &#10;&#9;C1178.190186,466.224915 1179.018799,467.566681 1179.941162,468.380493 &#10;&#9;C1178.913696,469.290833 1178.020752,470.627258 1176.825073,471.004456 &#10;&#9;C1175.302856,471.484772 1173.535889,471.218262 1171.874146,471.222076 &#10;&#9;C1165.945679,471.235657 1160.017212,471.227386 1154.107178,471.227386 &#10;&#9;C1154.107178,473.802185 1154.107178,475.711151 1154.107178,477.906830 &#10;&#9;C1162.852051,477.906830 1171.313599,478.099121 1179.760498,477.829315 &#10;&#9;C1184.287231,477.684723 1188.436890,475.959503 1189.674316,470.995239 &#10;&#9;C1190.820068,466.399597 1189.706177,462.392822 1184.256714,459.863190 &#10;M1094.249023,477.940277 &#10;&#9;C1095.680298,477.856262 1097.111450,477.772217 1098.567749,477.686737 &#10;&#9;C1098.567749,475.471008 1098.567749,473.689392 1098.567749,472.064545 &#10;&#9;C1091.137939,469.168884 1081.729126,475.020447 1075.680664,467.610474 &#10;&#9;C1075.791260,466.941498 1075.901733,466.272552 1076.012207,465.603577 &#10;&#9;C1083.537598,465.603577 1091.062988,465.603577 1098.443115,465.603577 &#10;&#9;C1098.443115,463.047607 1098.443115,461.141205 1098.443115,458.849030 &#10;&#9;C1090.709839,458.849030 1083.303589,458.849030 1074.970093,458.849030 &#10;&#9;C1076.058228,457.120636 1076.575562,455.327576 1077.363159,455.199921 &#10;&#9;C1084.319336,454.072174 1091.323486,453.240173 1098.561035,452.288177 &#10;&#9;C1098.561035,450.916962 1098.561035,448.994446 1098.561035,446.130646 &#10;&#9;C1090.548950,446.733795 1082.686523,446.636353 1075.120361,448.085876 &#10;&#9;C1067.291382,449.585754 1063.561279,455.704407 1064.036255,463.547729 &#10;&#9;C1064.466431,470.653046 1068.955444,475.954620 1076.413208,477.028168 &#10;&#9;C1081.971436,477.828278 1087.667358,477.670166 1094.249023,477.940277 &#10;M1249.758179,464.142700 &#10;&#9;C1248.851929,476.315796 1253.911865,479.462616 1270.977051,477.565491 &#10;&#9;C1270.977051,475.652466 1270.977051,473.723785 1270.977051,471.390503 &#10;&#9;C1268.959351,471.390503 1267.160156,471.464752 1265.369385,471.374115 &#10;&#9;C1262.239746,471.215668 1260.376587,469.552765 1260.283569,466.381622 &#10;&#9;C1260.164062,462.314026 1260.254517,458.240295 1260.254517,453.969482 &#10;&#9;C1264.176514,453.969482 1267.474365,453.969482 1270.944336,453.969482 &#10;&#9;C1270.944336,451.675323 1270.944336,449.610901 1270.944336,447.093597 &#10;&#9;C1267.206787,447.093597 1263.796875,447.093597 1259.937500,447.093597 &#10;&#9;C1259.937500,443.239380 1259.937500,439.839844 1259.937500,436.624939 &#10;&#9;C1256.359863,436.624939 1253.256592,436.624939 1249.639648,436.624939 &#10;&#9;C1249.639648,440.326874 1249.639648,443.717102 1249.639648,447.107697 &#10;&#9;C1247.030518,447.295288 1244.941284,447.445526 1242.797607,447.599640 &#10;&#9;C1242.797607,449.868134 1242.797607,451.777679 1242.797607,453.781555 &#10;&#9;C1245.228027,453.914886 1247.350342,454.031311 1249.756348,454.163330 &#10;&#9;C1249.756348,457.302277 1249.756348,460.258179 1249.758179,464.142700 &#10;M972.143738,451.384766 &#10;&#9;C976.011047,458.730408 980.069275,465.984436 983.658630,473.463531 &#10;&#9;C985.256653,476.793457 987.232178,477.787781 990.875916,477.945221 &#10;&#9;C995.398071,478.140564 997.669128,476.591461 999.575989,472.562927 &#10;&#9;C1003.642456,463.972046 1008.294495,455.658386 1013.003235,446.664642 &#10;&#9;C1010.856750,446.664642 1009.514221,446.865662 1008.253845,446.629120 &#10;&#9;C1003.351196,445.708984 1000.763672,447.804291 999.003662,452.374664 &#10;&#9;C997.027771,457.505646 994.231079,462.320526 991.495667,467.873535 &#10;&#9;C989.232422,463.217316 986.801147,459.508850 985.587036,455.437439 &#10;&#9;C983.348999,447.932312 978.792908,445.139954 971.291382,446.758331 &#10;&#9;C970.991455,446.823090 970.719604,447.018341 970.141724,447.291016 &#10;&#9;C970.722595,448.440796 971.293274,449.570435 972.143738,451.384766 &#10;M1399.443115,459.503235 &#10;&#9;C1399.463989,462.658325 1399.383301,465.818146 1399.529663,468.967407 &#10;&#9;C1399.752197,473.753387 1402.360596,476.974731 1407.017578,477.533142 &#10;&#9;C1411.523315,478.073425 1416.144653,477.650238 1420.658936,477.650238 &#10;&#9;C1420.658936,475.458435 1420.658936,473.681763 1420.658936,471.712738 &#10;&#9;C1418.495239,471.560608 1416.343506,471.880646 1414.632324,471.157654 &#10;&#9;C1412.892090,470.422516 1410.495605,468.805878 1410.296265,467.319214 &#10;&#9;C1409.715820,462.988800 1410.090210,458.530365 1410.090210,453.696533 &#10;&#9;C1414.151367,453.696533 1417.543335,453.696533 1420.807129,453.696533 &#10;&#9;C1420.807129,451.458130 1420.807129,449.679840 1420.807129,447.403870 &#10;&#9;C1417.186890,447.403870 1413.785522,447.403870 1409.915283,447.403870 &#10;&#9;C1409.915283,443.513214 1409.915283,440.102295 1409.915283,436.735138 &#10;&#9;C1406.224487,436.735138 1403.032349,436.735138 1399.330811,436.735138 &#10;&#9;C1399.330811,440.555389 1399.330811,443.960876 1399.330811,447.445374 &#10;&#9;C1396.855103,447.594971 1394.904785,447.712830 1392.744629,447.843353 &#10;&#9;C1392.744629,449.917908 1392.744629,451.792633 1392.744629,453.772064 &#10;&#9;C1395.121582,453.933899 1397.201416,454.075500 1399.450317,454.228638 &#10;&#9;C1399.450317,455.898102 1399.450317,457.212555 1399.443115,459.503235 &#10;M899.237610,473.342651 &#10;&#9;C899.237610,466.934631 899.237610,460.526611 899.237610,454.255310 &#10;&#9;C906.669617,452.959991 907.013977,453.186523 908.700867,459.761658 &#10;&#9;C911.981995,459.761658 915.202820,459.761658 918.370850,459.761658 &#10;&#9;C919.202515,449.777496 916.190002,446.489075 906.832947,446.600739 &#10;&#9;C900.899597,446.671539 894.964722,446.613922 888.958496,446.613922 &#10;&#9;C888.958496,457.318542 888.958496,467.475616 888.958496,477.713928 &#10;&#9;C892.472046,477.713928 895.608337,477.713928 898.938660,477.713928 &#10;&#9;C899.044922,476.477600 899.142395,475.344330 899.237610,473.342651 &#10;M1335.148682,468.669250 &#10;&#9;C1332.854004,468.669250 1330.559326,468.669250 1328.092529,468.669250 &#10;&#9;C1328.092529,471.891266 1328.092529,474.797150 1328.092529,477.713196 &#10;&#9;C1331.609253,477.713196 1334.861572,477.713196 1338.610718,477.713196 &#10;&#9;C1338.610718,475.582397 1338.917969,473.563446 1338.497314,471.709747 &#10;&#9;C1338.237671,470.565979 1336.868530,469.674011 1335.148682,468.669250 &#10;z" stroke="none" opacity="1.000000" fill="#FFFEFE"/>
<path d="M182.752502,198.687622 &#10;&#9;C181.409637,196.603058 180.044983,194.532166 178.727524,192.431656 &#10;&#9;C171.289658,180.573120 172.375534,168.183517 182.337860,158.271118 &#10;&#9;C191.950027,148.707123 203.937622,143.403259 217.166168,141.034485 &#10;&#9;C243.335724,136.348389 267.806000,141.712387 290.900726,154.222107 &#10;&#9;C318.124084,168.968170 338.880951,190.672043 354.968811,216.640472 &#10;&#9;C364.309235,231.717438 371.625641,248.048401 379.846252,263.818512 &#10;&#9;C380.209503,264.515381 380.506866,265.246582 380.976410,266.270264 &#10;&#9;C389.552917,260.237610 397.742432,254.305557 406.104126,248.627075 &#10;&#9;C433.306183,230.154053 461.559540,213.603485 492.630554,202.381424 &#10;&#9;C506.614380,197.330826 520.971375,193.601700 535.884399,192.961929 &#10;&#9;C541.111511,192.737686 546.649414,193.170380 551.612915,194.703247 &#10;&#9;C563.359497,198.330917 565.633179,210.240585 556.430176,218.459702 &#10;&#9;C549.936096,224.259476 542.177002,228.017899 533.597778,228.933014 &#10;&#9;C510.946198,231.349152 491.163971,240.816452 472.265442,252.719635 &#10;&#9;C468.919128,254.827286 465.606812,256.988892 462.604187,260.096588 &#10;&#9;C464.879456,259.415863 467.128540,258.625153 469.435059,258.075653 &#10;&#9;C475.706604,256.581482 481.944702,254.452515 488.304169,253.953598 &#10;&#9;C495.383209,253.398209 499.537842,257.730042 498.799744,264.763458 &#10;&#9;C498.223511,270.254456 496.536224,275.844543 494.254944,280.899719 &#10;&#9;C487.809601,295.182159 477.778625,307.113007 467.410858,318.615814 &#10;&#9;C437.979706,351.269043 404.422028,378.926422 366.007904,400.466492 &#10;&#9;C356.120239,406.010864 345.850922,410.791382 334.187897,411.429626 &#10;&#9;C324.223572,411.974884 320.270660,409.170746 317.580841,398.631348 &#10;&#9;C311.476257,408.565948 305.837433,417.949402 304.602203,429.248047 &#10;&#9;C304.180267,433.107513 305.814087,435.693695 309.907196,436.292450 &#10;&#9;C310.069946,436.316254 310.224609,436.392120 310.384705,436.437805 &#10;&#9;C322.984955,440.029816 324.622009,446.217743 315.499664,455.773682 &#10;&#9;C300.926880,471.039246 272.647552,476.851105 253.362427,468.543854 &#10;&#9;C240.730530,463.102570 235.421509,452.422394 238.346497,437.827026 &#10;&#9;C241.444702,422.367340 248.865723,408.755402 257.304321,395.725739 &#10;&#9;C279.460175,361.515839 306.929504,331.880402 336.803467,304.363861 &#10;&#9;C342.177063,299.414307 347.639435,294.561127 353.251465,289.491211 &#10;&#9;C347.998016,278.401184 342.999634,267.346375 337.418793,256.593872 &#10;&#9;C336.549805,254.919617 333.023163,254.624741 329.998291,253.495316 &#10;&#9;C317.869263,251.233658 306.324463,249.747223 295.097900,246.972916 &#10;&#9;C276.637390,242.410904 258.143372,237.740051 240.104141,231.781082 &#10;&#9;C218.844162,224.758179 199.355621,214.073471 182.752502,198.687622 &#10;M321.256927,229.128113 &#10;&#9;C319.552307,226.677063 317.847687,224.226013 316.057251,221.077988 &#10;&#9;C298.063354,192.617462 273.226929,172.253525 242.246674,159.439941 &#10;&#9;C234.099365,156.070175 225.415939,153.991943 216.377411,155.885681 &#10;&#9;C211.993103,156.804276 208.700638,159.113831 207.336868,163.545456 &#10;&#9;C205.271545,170.256683 210.571732,183.074646 217.173080,187.583221 &#10;&#9;C224.942856,196.232574 234.572098,202.356720 244.562546,208.072784 &#10;&#9;C267.695862,221.308655 293.058105,227.484253 319.005493,231.822266 &#10;&#9;C319.648651,231.929779 320.539337,230.556641 321.256927,229.128113 &#10;M366.432220,375.760864 &#10;&#9;C372.393463,373.751709 378.693024,372.414307 384.255310,369.612976 &#10;&#9;C404.422668,359.456146 421.432068,344.991119 436.728821,328.615997 &#10;&#9;C443.268738,321.615021 448.662048,313.505798 454.229340,305.654083 &#10;&#9;C456.102234,303.012695 457.207977,299.699402 458.125916,296.536926 &#10;&#9;C459.754120,290.927460 457.224823,288.070557 451.442993,289.128937 &#10;&#9;C447.882050,289.780792 444.352356,291.002899 441.023407,292.459717 &#10;&#9;C412.635376,304.882904 389.454315,324.031830 370.541504,348.323456 &#10;&#9;C366.128876,353.991028 362.857391,360.745514 360.077972,367.423218 &#10;&#9;C357.870941,372.725739 359.802368,374.846527 366.432220,375.760864 &#10;z" stroke="none" opacity="1.000000" fill="#DB342D"/>
<path d="M805.000122,214.867218 &#10;&#9;C830.800598,214.867508 856.101074,214.867508 881.684753,214.867508 &#10;&#9;C881.684753,222.995148 881.684753,230.884567 881.684753,239.139069 &#10;&#9;C855.092957,239.139069 828.670410,239.139069 802.054688,239.139069 &#10;&#9;C800.184631,244.716995 798.404480,250.026657 796.442383,255.879059 &#10;&#9;C821.689148,255.879059 846.404236,255.879059 871.819519,255.879059 &#10;&#9;C871.819519,257.887878 871.819702,259.478973 871.819458,261.070068 &#10;&#9;C871.814880,294.389893 871.824402,327.709747 871.799561,361.029572 &#10;&#9;C871.787659,377.016968 866.526672,382.820892 850.399231,383.277344 &#10;&#9;C833.751892,383.748505 817.083679,383.515289 800.424561,383.529053 &#10;&#9;C769.270508,383.554840 738.116455,383.536407 706.962402,383.536346 &#10;&#9;C705.148743,383.536346 703.335144,383.536346 701.207764,383.536346 &#10;&#9;C701.207764,341.005127 701.207764,298.801239 701.207764,256.059601 &#10;&#9;C707.343323,256.059601 713.452209,256.056000 719.561096,256.060364 &#10;&#9;C731.889404,256.069183 744.218872,255.996490 756.545227,256.157654 &#10;&#9;C759.423035,256.195312 761.087830,255.546143 761.996460,252.587708 &#10;&#9;C763.305786,248.324677 765.080261,244.204483 766.859314,239.484497 &#10;&#9;C741.493347,239.484497 716.480652,239.484497 691.126221,239.484497 &#10;&#9;C691.126221,231.135406 691.126221,223.259598 691.126221,214.866928 &#10;&#9;C728.971680,214.866928 766.735840,214.866928 805.000122,214.867218 &#10;M796.500183,331.331207 &#10;&#9;C775.247375,331.331207 753.994568,331.331207 732.775330,331.331207 &#10;&#9;C732.775330,340.985901 732.775330,349.875214 732.775330,358.978699 &#10;&#9;C765.312012,358.978699 797.457947,358.981018 829.603943,358.972687 &#10;&#9;C831.434448,358.972198 833.578247,359.467926 835.018677,358.694427 &#10;&#9;C836.952026,357.656342 839.622009,355.695862 839.743042,353.974457 &#10;&#9;C840.263000,346.579437 839.964966,339.126862 839.964966,331.330750 &#10;&#9;C825.425720,331.330750 811.463013,331.330750 796.500183,331.331207 &#10;M825.495911,280.854645 &#10;&#9;C794.605774,280.854645 763.715698,280.854645 732.752258,280.854645 &#10;&#9;C732.752258,289.791290 732.752258,298.192444 732.752258,306.581604 &#10;&#9;C768.632202,306.581604 804.158081,306.581604 839.699341,306.581604 &#10;&#9;C839.699341,297.895111 839.699341,289.501251 839.699341,280.853729 &#10;&#9;C835.101135,280.853729 830.797058,280.853729 825.495911,280.854645 &#10;z" stroke="none" opacity="1.000000" fill="#020302"/>
<path d="M1093.967041,290.829956 &#10;&#9;C1092.230713,291.610291 1090.520264,292.154633 1088.808350,292.158447 &#10;&#9;C1064.165894,292.213715 1039.523193,292.196259 1014.378845,292.196259 &#10;&#9;C1014.378845,323.303711 1014.378845,354.189148 1014.378845,385.426544 &#10;&#9;C1003.648438,385.426544 993.411072,385.426544 982.633606,385.426544 &#10;&#9;C982.633606,354.598419 982.633606,323.679657 982.633606,292.383148 &#10;&#9;C957.333801,292.383148 932.564575,292.383148 907.436646,292.383148 &#10;&#9;C907.436646,284.143005 907.436646,276.276428 907.436646,267.976257 &#10;&#9;C932.279541,267.976257 957.027405,267.976257 982.105469,267.976257 &#10;&#9;C982.105469,260.650269 982.105469,253.747055 982.105469,246.422836 &#10;&#9;C958.196045,246.422836 934.293335,246.422836 910.109863,246.422836 &#10;&#9;C910.109863,238.265930 910.109863,230.518738 910.109863,222.202408 &#10;&#9;C911.914185,222.202408 913.688782,222.203079 915.463379,222.202316 &#10;&#9;C960.610535,222.182938 1005.757629,222.177063 1050.904785,222.131195 &#10;&#9;C1058.929321,222.123047 1059.931763,221.227875 1061.626587,213.074646 &#10;&#9;C1071.621826,213.074646 1081.707886,213.074646 1091.816772,213.074646 &#10;&#9;C1094.820312,233.862061 1085.355103,245.334518 1066.909912,245.994965 &#10;&#9;C1051.269043,246.554993 1035.594727,246.186050 1019.935303,246.226837 &#10;&#9;C1018.151733,246.231491 1016.368103,246.227463 1014.351135,246.227463 &#10;&#9;C1014.351135,253.653702 1014.351135,260.556885 1014.351135,267.931366 &#10;&#9;C1027.684204,267.931366 1040.796875,267.931366 1053.909546,267.931366 &#10;&#9;C1067.059082,267.931366 1080.208618,267.931366 1093.992310,267.931366 &#10;&#9;C1093.992310,275.494110 1093.992310,282.918365 1093.967041,290.829956 &#10;z" stroke="none" opacity="1.000000" fill="#020202"/>
<path d="M1207.720947,344.713043 &#10;&#9;C1198.731079,353.426697 1189.975098,361.871399 1181.254272,370.352081 &#10;&#9;C1171.188232,380.140747 1159.045044,384.700989 1145.118164,384.760254 &#10;&#9;C1135.641357,384.800568 1126.164307,384.767944 1116.350708,384.767944 &#10;&#9;C1116.350708,375.962891 1116.350708,367.430603 1116.350708,358.483032 &#10;&#9;C1122.460083,358.483032 1128.444214,358.184967 1134.386841,358.554077 &#10;&#9;C1142.938965,359.085236 1150.114380,356.138947 1156.279053,350.593140 &#10;&#9;C1167.297729,340.680634 1178.150269,330.583496 1188.599976,320.996765 &#10;&#9;C1169.036255,300.554779 1149.512207,280.154205 1130.125244,259.896851 &#10;&#9;C1137.710205,259.896851 1146.331055,260.616516 1154.780640,259.720581 &#10;&#9;C1166.169556,258.513000 1174.585327,262.288940 1182.416992,270.515778 &#10;&#9;C1191.692383,280.259491 1202.202026,288.828217 1212.422607,298.129974 &#10;&#9;C1225.228149,286.135193 1237.807739,274.269867 1250.524902,262.553986 &#10;&#9;C1251.961792,261.230194 1254.161621,260.026672 1256.029541,259.993073 &#10;&#9;C1268.522461,259.768433 1281.021362,259.876373 1294.798706,259.876373 &#10;&#9;C1274.450684,279.690125 1254.783203,298.841217 1234.675293,318.421265 &#10;&#9;C1248.363037,330.556274 1261.510742,342.748871 1275.345825,354.103943 &#10;&#9;C1278.840332,356.972046 1284.449097,357.834778 1289.232422,358.416443 &#10;&#9;C1295.115112,359.131866 1301.151245,358.587219 1307.461670,358.587219 &#10;&#9;C1307.461670,367.260010 1307.461670,375.663269 1307.461670,384.495758 &#10;&#9;C1306.131958,384.582581 1304.696411,384.754852 1303.260620,384.757416 &#10;&#9;C1293.094849,384.775635 1282.922852,384.534882 1272.764771,384.812103 &#10;&#9;C1260.894775,385.136017 1250.965454,381.016266 1242.602783,372.789642 &#10;&#9;C1233.574707,363.908295 1224.582397,354.990692 1215.562378,346.101135 &#10;&#9;C1214.151245,344.710510 1212.675659,343.385498 1210.959961,341.777039 &#10;&#9;C1209.876465,342.749268 1208.923218,343.604584 1207.720947,344.713043 &#10;z" stroke="none" opacity="1.000000" fill="#030303"/>
<path d="M1501.938721,227.001892 &#10;&#9;C1504.419189,227.001572 1506.406494,227.001572 1509.184448,227.001572 &#10;&#9;C1509.184448,228.722794 1509.184082,230.295868 1509.184570,231.868942 &#10;&#9;C1509.190674,249.359909 1509.233398,266.850983 1509.192261,284.341827 &#10;&#9;C1509.152832,301.162170 1501.357300,309.118805 1484.458374,309.369873 &#10;&#9;C1471.634155,309.560455 1458.805664,309.459137 1445.979004,309.486298 &#10;&#9;C1444.020386,309.490417 1442.061646,309.486877 1439.755615,309.486877 &#10;&#9;C1439.755615,324.386749 1439.468140,338.825623 1439.908447,353.242249 &#10;&#9;C1440.066528,358.417023 1444.925903,358.801086 1449.028442,358.816193 &#10;&#9;C1464.353638,358.872742 1479.679077,358.821777 1495.004517,358.814392 &#10;&#9;C1502.822754,358.810608 1510.640991,358.813721 1518.809204,358.813721 &#10;&#9;C1518.809204,367.393707 1518.809204,375.789185 1518.809204,384.567017 &#10;&#9;C1517.441650,384.635620 1515.993652,384.771088 1514.545654,384.771576 &#10;&#9;C1487.726196,384.780518 1460.906616,384.796844 1434.087158,384.761780 &#10;&#9;C1414.039551,384.735596 1408.151733,378.824799 1408.155762,358.887146 &#10;&#9;C1408.165283,311.911377 1408.171997,264.935608 1408.179932,217.959839 &#10;&#9;C1408.180176,216.496353 1408.180054,215.032883 1408.180054,213.284790 &#10;&#9;C1418.643311,213.284790 1428.735596,213.284790 1439.344604,213.284790 &#10;&#9;C1439.344604,236.924805 1439.344604,260.652344 1439.344604,284.811584 &#10;&#9;C1450.464478,284.811584 1461.086914,285.067627 1471.688110,284.701691 &#10;&#9;C1476.852295,284.523438 1477.770142,280.226349 1477.783325,275.948639 &#10;&#9;C1477.827148,261.622864 1477.803223,247.296844 1477.805298,232.970917 &#10;&#9;C1477.805542,231.167328 1477.805298,229.363724 1477.805298,227.002213 &#10;&#9;C1485.896606,227.002213 1493.671265,227.002213 1501.938721,227.001892 &#10;z" stroke="none" opacity="1.000000" fill="#040404"/>
<path d="M369.316589,205.304047 &#10;&#9;C366.340302,190.472336 369.408020,176.371704 372.047577,162.338745 &#10;&#9;C377.099823,135.478683 383.269196,108.851944 395.043732,84.005409 &#10;&#9;C398.630981,76.435539 403.373474,69.139725 408.839081,62.797508 &#10;&#9;C417.024689,53.299030 428.057709,53.668930 436.526062,63.026928 &#10;&#9;C446.747284,74.321945 451.370361,88.167885 453.015594,103.000305 &#10;&#9;C455.989502,129.810852 447.106354,153.719925 433.074188,175.721176 &#10;&#9;C426.157745,186.565613 417.426849,196.403595 408.549988,205.781708 &#10;&#9;C404.273132,210.300095 398.079315,213.491348 392.185608,215.885315 &#10;&#9;C381.613434,220.179581 373.671387,216.211136 369.316589,205.304047 &#10;z" stroke="none" opacity="1.000000" fill="#8AB93E"/>
<path d="M377.316589,441.291382 &#10;&#9;C427.317413,412.313263 473.730743,379.317474 512.009521,335.965881 &#10;&#9;C530.297974,315.253784 546.356689,292.975098 556.393860,267.020050 &#10;&#9;C560.400574,256.659058 578.484497,252.272537 586.022461,255.354263 &#10;&#9;C590.544495,257.202972 592.207397,261.824219 589.466980,267.098663 &#10;&#9;C583.104492,279.344238 577.196777,291.939362 569.640198,303.429626 &#10;&#9;C548.327454,335.836975 521.143311,363.042053 491.880463,388.250977 &#10;&#9;C463.662689,412.559692 433.103882,433.604645 401.381226,453.021057 &#10;&#9;C393.322510,457.953522 384.657501,460.420319 375.197540,459.171631 &#10;&#9;C372.952698,458.875366 370.631958,458.047455 368.677002,456.900208 &#10;&#9;C364.999115,454.741943 364.524536,451.054199 367.710876,448.180878 &#10;&#9;C370.530579,445.638214 373.883362,443.686798 377.316589,441.291382 &#10;z" stroke="none" opacity="1.000000" fill="#DA352E"/>
<path d="M1378.795044,279.018890 &#10;&#9;C1378.795288,314.332184 1378.795288,349.148956 1378.795288,384.372223 &#10;&#9;C1368.532593,384.372223 1358.497681,384.372223 1347.951904,384.372223 &#10;&#9;C1347.951904,350.750122 1347.951904,317.193634 1347.951904,283.310608 &#10;&#9;C1341.178101,283.310608 1334.897339,283.310608 1328.322266,283.310608 &#10;&#9;C1328.322266,274.395264 1328.322266,265.804108 1328.322266,256.696411 &#10;&#9;C1331.905640,256.696411 1335.539185,256.515991 1339.148071,256.737274 &#10;&#9;C1345.054565,257.099487 1348.846924,254.860550 1350.985474,249.106659 &#10;&#9;C1355.211792,237.736343 1359.926025,226.548096 1364.229736,215.205338 &#10;&#9;C1365.375488,212.185852 1366.697876,210.774475 1370.258911,210.893143 &#10;&#9;C1379.712646,211.208191 1389.183838,211.000107 1399.138916,211.000107 &#10;&#9;C1393.843384,224.533997 1388.710205,237.650452 1383.579346,250.767731 &#10;&#9;C1382.065918,254.636627 1379.841187,258.397919 1379.226685,262.405396 &#10;&#9;C1378.418579,267.675903 1378.879639,273.140991 1378.795044,279.018890 &#10;z" stroke="none" opacity="1.000000" fill="#040404"/>
<path d="M1185.999756,249.700500 &#10;&#9;C1162.373535,249.700058 1139.247192,249.700058 1115.766113,249.700058 &#10;&#9;C1115.766113,241.111557 1115.766113,232.893494 1115.766113,224.204498 &#10;&#9;C1141.952759,224.204498 1168.000610,224.204498 1194.468994,224.204498 &#10;&#9;C1194.468994,219.332733 1194.468994,214.908310 1194.468994,210.222900 &#10;&#9;C1206.466431,210.222900 1218.044434,210.222900 1230.039429,210.222900 &#10;&#9;C1230.039429,214.543289 1230.039429,218.957047 1230.039429,223.834229 &#10;&#9;C1255.813843,223.834229 1281.182251,223.834229 1306.959961,223.834229 &#10;&#9;C1306.959961,232.636063 1306.959961,240.980530 1306.959961,249.700943 &#10;&#9;C1266.697266,249.700943 1226.598511,249.700943 1185.999756,249.700500 &#10;z" stroke="none" opacity="1.000000" fill="#060606"/>
<path d="M615.282349,332.286407 &#10;&#9;C590.827087,361.789124 562.311707,386.298676 530.858765,407.277069 &#10;&#9;C512.325623,419.638275 492.884094,430.649933 473.709991,442.030792 &#10;&#9;C467.368378,445.794922 460.449829,448.524597 452.810913,447.092438 &#10;&#9;C450.740051,446.704193 448.896912,445.101349 446.949249,444.056000 &#10;&#9;C448.247223,442.298950 449.177582,439.954132 450.900543,438.876556 &#10;&#9;C466.563477,429.080505 482.675842,419.974823 498.062897,409.771667 &#10;&#9;C534.105469,385.871857 566.796143,358.186218 592.556519,323.026337 &#10;&#9;C602.145996,309.937866 610.246643,296.044373 615.823608,280.722504 &#10;&#9;C619.752747,269.927734 634.454468,263.243378 645.416748,266.980713 &#10;&#9;C650.401489,268.680145 651.633118,272.578979 649.041809,278.382263 &#10;&#9;C641.329590,295.654144 631.556519,311.678650 619.892395,326.558228 &#10;&#9;C618.453613,328.393616 616.970886,330.194489 615.282349,332.286407 &#10;z" stroke="none" opacity="1.000000" fill="#D9352F"/>
<path d="M1235.999634,415.455139 &#10;&#9;C1055.742310,415.455750 875.985046,415.455750 696.128235,415.455750 &#10;&#9;C696.128235,413.826752 696.128235,412.586182 696.128235,411.192535 &#10;&#9;C971.440491,411.192535 1246.488892,411.192535 1521.839355,411.192535 &#10;&#9;C1521.839355,412.508179 1521.839355,413.732849 1521.839355,415.454559 &#10;&#9;C1426.698853,415.454559 1331.599243,415.454559 1235.999634,415.455139 &#10;z" stroke="none" opacity="1.000000" fill="#0A0B0B"/>
<path d="M182.398102,198.741074 &#10;&#9;C199.355621,214.073471 218.844162,224.758179 240.104141,231.781082 &#10;&#9;C258.143372,237.740051 276.637390,242.410904 295.097900,246.972916 &#10;&#9;C306.324463,249.747223 317.869263,251.233658 329.573822,253.526169 &#10;&#9;C326.899872,260.203827 320.857025,262.457428 314.753510,262.803345 &#10;&#9;C303.498901,263.441284 292.121857,263.614777 280.895996,262.721954 &#10;&#9;C255.145508,260.673950 229.582047,256.896210 204.971985,248.781525 &#10;&#9;C194.778366,245.420364 185.095886,240.410889 175.396606,235.706390 &#10;&#9;C172.359619,234.233307 169.728043,231.573059 167.434418,228.991165 &#10;&#9;C162.501877,223.438675 161.978531,216.247238 167.034546,210.838684 &#10;&#9;C171.370544,206.200394 176.991180,202.763000 182.398102,198.741074 &#10;z" stroke="none" opacity="1.000000" fill="#8DB740"/>
<path d="M1035.359131,333.687683 &#10;&#9;C1031.982178,323.745239 1028.766113,314.160217 1025.316650,303.879242 &#10;&#9;C1035.942749,303.879242 1046.013062,303.785767 1056.075684,304.020905 &#10;&#9;C1057.105225,304.044952 1058.545776,305.867523 1059.022339,307.144165 &#10;&#9;C1063.438354,318.974030 1067.677124,330.869934 1071.982788,342.741119 &#10;&#9;C1074.956055,350.938721 1075.804077,351.515350 1084.726562,351.542725 &#10;&#9;C1087.523560,351.551300 1090.320557,351.544037 1093.301514,351.544037 &#10;&#9;C1093.301514,359.910278 1093.301514,367.802429 1093.301514,375.895630 &#10;&#9;C1082.191528,375.895630 1071.380859,376.061920 1060.578369,375.838074 &#10;&#9;C1053.188965,375.684937 1048.628174,371.257538 1046.217529,364.615112 &#10;&#9;C1042.534668,354.467529 1039.074585,344.239227 1035.359131,333.687683 &#10;z" stroke="none" opacity="1.000000" fill="#030303"/>
<path d="M935.734619,317.685730 &#10;&#9;C938.166870,305.948730 944.885986,301.789185 956.374146,303.705292 &#10;&#9;C962.034241,304.649323 967.981934,303.869080 974.451843,303.869080 &#10;&#9;C971.325134,311.174835 968.449463,318.021545 965.471924,324.823639 &#10;&#9;C960.007263,337.306915 954.288879,349.683136 949.046936,362.258514 &#10;&#9;C945.172485,371.553101 938.442261,375.959869 928.552429,375.950958 &#10;&#9;C921.256653,375.944366 913.960938,375.949646 906.220459,375.949646 &#10;&#9;C906.220459,367.870056 906.220459,360.119659 906.220459,352.158325 &#10;&#9;C906.423889,352.087341 906.898010,351.737823 907.295105,351.810242 &#10;&#9;C917.834412,353.732635 923.147583,348.578766 926.293030,338.989990 &#10;&#9;C928.662537,331.766754 932.433350,325.003204 935.734619,317.685730 &#10;z" stroke="none" opacity="1.000000" fill="#030303"/>
<path d="M1516.535400,448.173889 &#10;&#9;C1519.371094,447.352478 1522.022949,446.912109 1525.681885,446.304474 &#10;&#9;C1523.553467,452.899231 1521.759033,458.489990 1519.941528,464.073273 &#10;&#9;C1519.325073,465.966980 1518.618408,467.831390 1518.008667,469.727112 &#10;&#9;C1515.340820,478.020782 1515.348267,478.023163 1506.046875,477.737213 &#10;&#9;C1504.044800,471.593292 1501.974121,465.239044 1499.527832,457.731842 &#10;&#9;C1497.351562,465.176605 1495.542603,471.364990 1493.747192,477.506744 &#10;&#9;C1493.084229,477.658875 1492.606445,477.852783 1492.123535,477.866760 &#10;&#9;C1484.490356,478.088074 1484.469604,478.089813 1481.933716,470.698090 &#10;&#9;C1479.298462,463.016785 1476.708862,455.319855 1474.094604,447.615967 &#10;&#9;C1481.835205,445.632874 1482.256958,445.850677 1484.586426,453.106201 &#10;&#9;C1485.931274,457.295044 1487.235229,461.496918 1489.031128,467.195312 &#10;&#9;C1491.386230,459.588135 1493.303955,453.393829 1495.220581,447.203217 &#10;&#9;C1495.793579,447.063934 1496.268921,446.860046 1496.750122,446.844696 &#10;&#9;C1504.156006,446.608032 1504.145508,446.616913 1506.266602,453.882935 &#10;&#9;C1507.517090,458.165863 1508.808472,462.436829 1510.421265,467.854553 &#10;&#9;C1512.621704,460.693359 1514.486572,454.624115 1516.535400,448.173889 &#10;z" stroke="none" opacity="1.000000" fill="#0A0A0A"/>
<path d="M808.085327,477.858337 &#10;&#9;C804.950562,477.735443 802.255249,477.880005 799.662170,477.432465 &#10;&#9;C794.447266,476.532379 791.565857,473.417664 791.337585,468.953369 &#10;&#9;C791.103088,464.365875 793.956543,460.296082 799.133850,459.450897 &#10;&#9;C804.174011,458.628082 809.383667,458.830780 814.520508,458.620667 &#10;&#9;C816.128601,458.554901 817.741638,458.610413 819.610901,458.610413 &#10;&#9;C819.399536,453.581055 815.727905,453.433563 812.593445,453.298401 &#10;&#9;C806.639282,453.041687 800.666199,453.224030 794.388916,453.224030 &#10;&#9;C794.388916,451.015442 794.388916,449.118927 794.388916,447.126526 &#10;&#9;C803.083374,447.126526 811.860229,446.688446 820.567261,447.279510 &#10;&#9;C826.438599,447.678101 830.165710,451.758881 830.531433,457.388184 &#10;&#9;C830.959045,463.970032 830.631348,470.600983 830.631348,477.857910 &#10;&#9;C823.071106,477.857910 815.821045,477.857910 808.085327,477.858337 &#10;M806.878357,464.979645 &#10;&#9;C805.427307,466.200195 803.976318,467.420776 802.525330,468.641327 &#10;&#9;C804.237244,469.556061 805.886292,471.075317 807.674072,471.261322 &#10;&#9;C811.548523,471.664490 815.494019,471.385529 819.476685,471.385529 &#10;&#9;C819.476685,468.957672 819.476685,467.101837 819.476685,464.951843 &#10;&#9;C815.360046,464.951843 811.583435,464.951843 806.878357,464.979645 &#10;z" stroke="none" opacity="1.000000" fill="#090A0A"/>
<path d="M724.853943,459.597717 &#10;&#9;C724.478455,455.606140 722.131165,454.389252 718.984070,454.294189 &#10;&#9;C715.841309,454.199219 712.693420,454.273285 709.086548,454.273285 &#10;&#9;C709.086548,462.161865 709.086548,469.751099 709.086548,477.579285 &#10;&#9;C705.528259,477.579285 702.423401,477.579285 698.983948,477.579285 &#10;&#9;C698.983948,463.855743 698.983948,450.118683 698.983948,436.146362 &#10;&#9;C702.111267,436.146362 705.219788,436.146362 708.858887,436.146362 &#10;&#9;C708.858887,439.767303 708.858887,443.502167 708.858887,447.079559 &#10;&#9;C714.805847,447.340851 720.267944,447.208649 725.621033,447.909393 &#10;&#9;C732.439697,448.802002 735.451050,452.542175 735.587952,459.421051 &#10;&#9;C735.706421,465.376221 735.612610,471.335632 735.612610,477.561584 &#10;&#9;C731.865234,477.561584 728.640015,477.561584 724.879395,477.561584 &#10;&#9;C724.879395,471.616394 724.879395,465.832550 724.853943,459.597717 &#10;z" stroke="none" opacity="1.000000" fill="#080808"/>
<path d="M1184.645874,459.975647 &#10;&#9;C1189.706177,462.392822 1190.820068,466.399597 1189.674316,470.995239 &#10;&#9;C1188.436890,475.959503 1184.287231,477.684723 1179.760498,477.829315 &#10;&#9;C1171.313599,478.099121 1162.852051,477.906830 1154.107178,477.906830 &#10;&#9;C1154.107178,475.711151 1154.107178,473.802185 1154.107178,471.227386 &#10;&#9;C1160.017212,471.227386 1165.945679,471.235657 1171.874146,471.222076 &#10;&#9;C1173.535889,471.218262 1175.302856,471.484772 1176.825073,471.004456 &#10;&#9;C1178.020752,470.627258 1178.913696,469.290833 1179.941162,468.380493 &#10;&#9;C1179.018799,467.566681 1178.190186,466.224915 1177.155884,466.041168 &#10;&#9;C1174.394653,465.550598 1171.546387,465.528381 1168.729736,465.376678 &#10;&#9;C1166.737915,465.269379 1164.733643,465.347046 1162.748291,465.181122 &#10;&#9;C1156.805542,464.684357 1153.571167,461.762756 1153.380615,456.834137 &#10;&#9;C1153.180176,451.648743 1156.785767,447.271332 1162.552612,446.985474 &#10;&#9;C1170.830688,446.575073 1179.144287,446.880798 1187.715820,446.880798 &#10;&#9;C1187.715820,448.934998 1187.715820,450.982605 1187.715820,453.278625 &#10;&#9;C1181.898926,453.278625 1176.243042,453.010010 1170.635376,453.412354 &#10;&#9;C1168.426758,453.570801 1166.325562,455.227325 1164.175537,456.201691 &#10;&#9;C1166.254883,457.086975 1168.265747,458.447327 1170.427734,458.759064 &#10;&#9;C1174.995483,459.417633 1179.642334,459.527985 1184.645874,459.975647 &#10;z" stroke="none" opacity="1.000000" fill="#090909"/>
<path d="M1093.775513,477.939545 &#10;&#9;C1087.667358,477.670166 1081.971436,477.828278 1076.413208,477.028168 &#10;&#9;C1068.955444,475.954620 1064.466431,470.653046 1064.036255,463.547729 &#10;&#9;C1063.561279,455.704407 1067.291382,449.585754 1075.120361,448.085876 &#10;&#9;C1082.686523,446.636353 1090.548950,446.733795 1098.561035,446.130646 &#10;&#9;C1098.561035,448.994446 1098.561035,450.916962 1098.561035,452.288177 &#10;&#9;C1091.323486,453.240173 1084.319336,454.072174 1077.363159,455.199921 &#10;&#9;C1076.575562,455.327576 1076.058228,457.120636 1074.970093,458.849030 &#10;&#9;C1083.303589,458.849030 1090.709839,458.849030 1098.443115,458.849030 &#10;&#9;C1098.443115,461.141205 1098.443115,463.047607 1098.443115,465.603577 &#10;&#9;C1091.062988,465.603577 1083.537598,465.603577 1076.012207,465.603577 &#10;&#9;C1075.901733,466.272552 1075.791260,466.941498 1075.680664,467.610474 &#10;&#9;C1081.729126,475.020447 1091.137939,469.168884 1098.567749,472.064545 &#10;&#9;C1098.567749,473.689392 1098.567749,475.471008 1098.567749,477.686737 &#10;&#9;C1097.111450,477.772217 1095.680298,477.856262 1093.775513,477.939545 &#10;z" stroke="none" opacity="1.000000" fill="#0D0D0D"/>
<path d="M1249.757324,463.678375 &#10;&#9;C1249.756348,460.258179 1249.756348,457.302277 1249.756348,454.163330 &#10;&#9;C1247.350342,454.031311 1245.228027,453.914886 1242.797607,453.781555 &#10;&#9;C1242.797607,451.777679 1242.797607,449.868134 1242.797607,447.599640 &#10;&#9;C1244.941284,447.445526 1247.030518,447.295288 1249.639648,447.107697 &#10;&#9;C1249.639648,443.717102 1249.639648,440.326874 1249.639648,436.624939 &#10;&#9;C1253.256592,436.624939 1256.359863,436.624939 1259.937500,436.624939 &#10;&#9;C1259.937500,439.839844 1259.937500,443.239380 1259.937500,447.093597 &#10;&#9;C1263.796875,447.093597 1267.206787,447.093597 1270.944336,447.093597 &#10;&#9;C1270.944336,449.610901 1270.944336,451.675323 1270.944336,453.969482 &#10;&#9;C1267.474365,453.969482 1264.176514,453.969482 1260.254517,453.969482 &#10;&#9;C1260.254517,458.240295 1260.164062,462.314026 1260.283569,466.381622 &#10;&#9;C1260.376587,469.552765 1262.239746,471.215668 1265.369385,471.374115 &#10;&#9;C1267.160156,471.464752 1268.959351,471.390503 1270.977051,471.390503 &#10;&#9;C1270.977051,473.723785 1270.977051,475.652466 1270.977051,477.565491 &#10;&#9;C1253.911865,479.462616 1248.851929,476.315796 1249.757324,463.678375 &#10;z" stroke="none" opacity="1.000000" fill="#080809"/>
<path d="M972.003906,451.042419 &#10;&#9;C971.293274,449.570435 970.722595,448.440796 970.141724,447.291016 &#10;&#9;C970.719604,447.018341 970.991455,446.823090 971.291382,446.758331 &#10;&#9;C978.792908,445.139954 983.348999,447.932312 985.587036,455.437439 &#10;&#9;C986.801147,459.508850 989.232422,463.217316 991.495667,467.873535 &#10;&#9;C994.231079,462.320526 997.027771,457.505646 999.003662,452.374664 &#10;&#9;C1000.763672,447.804291 1003.351196,445.708984 1008.253845,446.629120 &#10;&#9;C1009.514221,446.865662 1010.856750,446.664642 1013.003235,446.664642 &#10;&#9;C1008.294495,455.658386 1003.642456,463.972046 999.575989,472.562927 &#10;&#9;C997.669128,476.591461 995.398071,478.140564 990.875916,477.945221 &#10;&#9;C987.232178,477.787781 985.256653,476.793457 983.658630,473.463531 &#10;&#9;C980.069275,465.984436 976.011047,458.730408 972.003906,451.042419 &#10;z" stroke="none" opacity="1.000000" fill="#080808"/>
<path d="M1399.446777,459.015137 &#10;&#9;C1399.450317,457.212555 1399.450317,455.898102 1399.450317,454.228638 &#10;&#9;C1397.201416,454.075500 1395.121582,453.933899 1392.744629,453.772064 &#10;&#9;C1392.744629,451.792633 1392.744629,449.917908 1392.744629,447.843353 &#10;&#9;C1394.904785,447.712830 1396.855103,447.594971 1399.330811,447.445374 &#10;&#9;C1399.330811,443.960876 1399.330811,440.555389 1399.330811,436.735138 &#10;&#9;C1403.032349,436.735138 1406.224487,436.735138 1409.915283,436.735138 &#10;&#9;C1409.915283,440.102295 1409.915283,443.513214 1409.915283,447.403870 &#10;&#9;C1413.785522,447.403870 1417.186890,447.403870 1420.807129,447.403870 &#10;&#9;C1420.807129,449.679840 1420.807129,451.458130 1420.807129,453.696533 &#10;&#9;C1417.543335,453.696533 1414.151367,453.696533 1410.090210,453.696533 &#10;&#9;C1410.090210,458.530365 1409.715820,462.988800 1410.296265,467.319214 &#10;&#9;C1410.495605,468.805878 1412.892090,470.422516 1414.632324,471.157654 &#10;&#9;C1416.343506,471.880646 1418.495239,471.560608 1420.658936,471.712738 &#10;&#9;C1420.658936,473.681763 1420.658936,475.458435 1420.658936,477.650238 &#10;&#9;C1416.144653,477.650238 1411.523315,478.073425 1407.017578,477.533142 &#10;&#9;C1402.360596,476.974731 1399.752197,473.753387 1399.529663,468.967407 &#10;&#9;C1399.383301,465.818146 1399.463989,462.658325 1399.446777,459.015137 &#10;z" stroke="none" opacity="1.000000" fill="#0A0B0B"/>
<path d="M899.238770,473.776855 &#10;&#9;C899.142395,475.344330 899.044922,476.477600 898.938660,477.713928 &#10;&#9;C895.608337,477.713928 892.472046,477.713928 888.958496,477.713928 &#10;&#9;C888.958496,467.475616 888.958496,457.318542 888.958496,446.613922 &#10;&#9;C894.964722,446.613922 900.899597,446.671539 906.832947,446.600739 &#10;&#9;C916.190002,446.489075 919.202515,449.777496 918.370850,459.761658 &#10;&#9;C915.202820,459.761658 911.981995,459.761658 908.700867,459.761658 &#10;&#9;C907.013977,453.186523 906.669617,452.959991 899.237610,454.255310 &#10;&#9;C899.237610,460.526611 899.237610,466.934631 899.238770,473.776855 &#10;z" stroke="none" opacity="1.000000" fill="#060606"/>
<path d="M1335.572998,468.669128 &#10;&#9;C1336.868530,469.674011 1338.237671,470.565979 1338.497314,471.709747 &#10;&#9;C1338.917969,473.563446 1338.610718,475.582397 1338.610718,477.713196 &#10;&#9;C1334.861572,477.713196 1331.609253,477.713196 1328.092529,477.713196 &#10;&#9;C1328.092529,474.797150 1328.092529,471.891266 1328.092529,468.669250 &#10;&#9;C1330.559326,468.669250 1332.854004,468.669250 1335.572998,468.669128 &#10;z" stroke="none" opacity="1.000000" fill="#101010"/>
<path d="M366.029419,375.780853 &#10;&#9;C359.802368,374.846527 357.870941,372.725739 360.077972,367.423218 &#10;&#9;C362.857391,360.745514 366.128876,353.991028 370.541504,348.323456 &#10;&#9;C389.454315,324.031830 412.635376,304.882904 441.023407,292.459717 &#10;&#9;C444.352356,291.002899 447.882050,289.780792 451.442993,289.128937 &#10;&#9;C457.224823,288.070557 459.754120,290.927460 458.125916,296.536926 &#10;&#9;C457.207977,299.699402 456.102234,303.012695 454.229340,305.654083 &#10;&#9;C448.662048,313.505798 443.268738,321.615021 436.728821,328.615997 &#10;&#9;C421.432068,344.991119 404.422668,359.456146 384.255310,369.612976 &#10;&#9;C378.693024,372.414307 372.393463,373.751709 366.029419,375.780853 &#10;z" stroke="none" opacity="1.000000" fill="#FFFCFB"/>
<path d="M216.920959,186.944794 &#10;&#9;C210.571732,183.074646 205.271545,170.256683 207.336868,163.545456 &#10;&#9;C208.700638,159.113831 211.993103,156.804276 216.377411,155.885681 &#10;&#9;C225.415939,153.991943 234.099365,156.070175 242.246674,159.439941 &#10;&#9;C273.226929,172.253525 298.063354,192.617462 315.940582,221.696884 &#10;&#9;C315.254639,222.527802 314.685333,222.739822 313.878174,222.851074 &#10;&#9;C313.429718,222.483719 313.219086,222.217133 312.900940,221.726196 &#10;&#9;C312.577606,221.221817 312.293701,221.065460 311.632965,220.900665 &#10;&#9;C291.973633,205.226562 271.114563,192.328979 246.345383,187.873703 &#10;&#9;C236.790695,186.155075 226.743668,187.173431 216.920959,186.944794 &#10;z" stroke="none" opacity="1.000000" fill="#FEFCF9"/>
<path d="M313.008484,221.950546 &#10;&#9;C313.219086,222.217133 313.429718,222.483719 314.012268,223.152954 &#10;&#9;C316.694336,225.661758 319.004425,227.767914 321.314545,229.874054 &#10;&#9;C320.539337,230.556641 319.648651,231.929779 319.005493,231.822266 &#10;&#9;C293.058105,227.484253 267.695862,221.308655 244.562546,208.072784 &#10;&#9;C234.572098,202.356720 224.942856,196.232574 217.047028,187.264008 &#10;&#9;C226.743668,187.173431 236.790695,186.155075 246.345383,187.873703 &#10;&#9;C271.114563,192.328979 291.973633,205.226562 311.732849,221.131500 &#10;&#9;C312.430450,221.646500 312.719452,221.798523 313.008484,221.950546 &#10;z" stroke="none" opacity="1.000000" fill="#8FB740"/>
<path d="M321.285736,229.501083 &#10;&#9;C319.004425,227.767914 316.694336,225.661758 314.250122,223.253723 &#10;&#9;C314.685333,222.739822 315.254639,222.527802 315.983490,222.045380 &#10;&#9;C317.847687,224.226013 319.552307,226.677063 321.285736,229.501083 &#10;z" stroke="none" opacity="1.000000" fill="#F5ECD5"/>
<path d="M797.000244,331.330994 &#10;&#9;C811.463013,331.330750 825.425720,331.330750 839.964966,331.330750 &#10;&#9;C839.964966,339.126862 840.263000,346.579437 839.743042,353.974457 &#10;&#9;C839.622009,355.695862 836.952026,357.656342 835.018677,358.694427 &#10;&#9;C833.578247,359.467926 831.434448,358.972198 829.603943,358.972687 &#10;&#9;C797.457947,358.981018 765.312012,358.978699 732.775330,358.978699 &#10;&#9;C732.775330,349.875214 732.775330,340.985901 732.775330,331.331207 &#10;&#9;C753.994568,331.331207 775.247375,331.331207 797.000244,331.330994 &#10;z" stroke="none" opacity="1.000000" fill="#F9F9F9"/>
<path d="M825.994507,280.854187 &#10;&#9;C830.797058,280.853729 835.101135,280.853729 839.699341,280.853729 &#10;&#9;C839.699341,289.501251 839.699341,297.895111 839.699341,306.581604 &#10;&#9;C804.158081,306.581604 768.632202,306.581604 732.752258,306.581604 &#10;&#9;C732.752258,298.192444 732.752258,289.791290 732.752258,280.854645 &#10;&#9;C763.715698,280.854645 794.605774,280.854645 825.994507,280.854187 &#10;z" stroke="none" opacity="1.000000" fill="#FBFBFB"/>
<path d="M807.342590,464.965759 &#10;&#9;C811.583435,464.951843 815.360046,464.951843 819.476685,464.951843 &#10;&#9;C819.476685,467.101837 819.476685,468.957672 819.476685,471.385529 &#10;&#9;C815.494019,471.385529 811.548523,471.664490 807.674072,471.261322 &#10;&#9;C805.886292,471.075317 804.237244,469.556061 802.525330,468.641357 &#10;&#9;C803.976318,467.420776 805.427307,466.200195 807.342590,464.965759 &#10;z" stroke="none" opacity="1.000000" fill="#F4F5F5"/>
<path d="M312.900940,221.726196 &#10;&#9;C312.719452,221.798523 312.430450,221.646500 312.041534,221.263641 &#10;&#9;C312.293701,221.065460 312.577606,221.221817 312.900940,221.726196 &#10;z" stroke="none" opacity="1.000000" fill="#F5ECD5"/>
</svg>